<?xml version="1.0" encoding="UTF-8" standalone="no"?>
<!-- Created with Inkscape (http://www.inkscape.org/) -->

<svg
   width="512"
   height="512"
   viewBox="0 0 135.46667 135.46667"
   version="1.1"
   id="svg1"
   inkscape:version="1.3.2 (091e20ef0f, 2023-11-25)"
   sodipodi:docname="B.svg"
   xmlns:inkscape="http://www.inkscape.org/namespaces/inkscape"
   xmlns:sodipodi="http://sodipodi.sourceforge.net/DTD/sodipodi-0.dtd"
   xmlns="http://www.w3.org/2000/svg"
   xmlns:svg="http://www.w3.org/2000/svg">
  <sodipodi:namedview
     id="namedview1"
     pagecolor="#ffffff"
     bordercolor="#666666"
     borderopacity="1.0"
     inkscape:showpageshadow="2"
     inkscape:pageopacity="0.0"
     inkscape:pagecheckerboard="0"
     inkscape:deskcolor="#d1d1d1"
     inkscape:document-units="mm"
     inkscape:zoom="0.80087682"
     inkscape:cx="235.99135"
     inkscape:cy="561.25985"
     inkscape:window-width="1920"
     inkscape:window-height="1168"
     inkscape:window-x="1024"
     inkscape:window-y="0"
     inkscape:window-maximized="1"
     inkscape:current-layer="layer1" />
  <defs
     id="defs1" />
  <g
     inkscape:label="Layer 1"
     inkscape:groupmode="layer"
     id="layer1">
    <circle
       style="fill:#ffcc00;fill-opacity:0.436674;stroke-width:4;stroke-linecap:square"
       id="path1"
       cx="67.73333"
       cy="67.73333"
       r="65.899406" />
    <path
       style="font-weight:bold;font-size:139.983px;line-height:1.25;font-family:'Myriad Pro';-inkscape-font-specification:'Myriad Pro Bold';letter-spacing:0px;word-spacing:0px;fill:#333333;stroke-width:0.264583"
       d="m 35.912586,113.60142 c 4.759422,0.69992 12.59847,1.39983 23.097195,1.39983 18.757723,0 30.236329,-3.07963 37.095496,-8.53896 5.879283,-4.75942 9.798813,-11.478608 9.798813,-20.157554 0,-12.038539 -7.979034,-20.297536 -18.757725,-23.097196 v -0.279966 c 10.638708,-4.059507 15.538115,-11.758572 15.538115,-20.017569 0,-8.678946 -4.619441,-15.118164 -11.198642,-18.617739 -6.99915,-4.059507 -14.978181,-5.319354 -27.996601,-5.319354 -10.778691,0 -21.977331,0.979881 -27.576651,1.959762 z M 57.050019,35.070957 c 1.679796,-0.279966 4.339473,-0.559932 9.098895,-0.559932 9.658828,0 15.118165,3.779541 15.118165,10.918674 0,6.99915 -5.879286,11.618589 -17.21791,11.618589 h -6.99915 z m 0,37.235478 h 7.279116 c 10.638709,0 19.177672,3.779541 19.177672,13.158403 0,9.938793 -8.538963,13.718334 -18.197791,13.718334 -3.639558,0 -6.159252,0 -8.258997,-0.279966 z"
       id="text3"
       aria-label="B" />
  </g>
</svg>
