<?xml version="1.0" encoding="UTF-8" standalone="no"?>
<!-- Created with Inkscape (http://www.inkscape.org/) -->

<svg
   width="512"
   height="512"
   viewBox="0 0 135.46666 135.46667"
   version="1.1"
   id="svg1"
   xml:space="preserve"
   inkscape:version="1.3.2 (091e20ef0f, 2023-11-25)"
   sodipodi:docname="logo.svg"
   inkscape:export-filename="logo.png"
   inkscape:export-xdpi="96"
   inkscape:export-ydpi="96"
   xmlns:inkscape="http://www.inkscape.org/namespaces/inkscape"
   xmlns:sodipodi="http://sodipodi.sourceforge.net/DTD/sodipodi-0.dtd"
   xmlns="http://www.w3.org/2000/svg"
   xmlns:svg="http://www.w3.org/2000/svg"><sodipodi:namedview
     id="namedview1"
     pagecolor="#ffffff"
     bordercolor="#666666"
     borderopacity="1.0"
     inkscape:showpageshadow="2"
     inkscape:pageopacity="0.0"
     inkscape:pagecheckerboard="0"
     inkscape:deskcolor="#d1d1d1"
     inkscape:document-units="mm"
     inkscape:zoom="0.71268238"
     inkscape:cx="239.93858"
     inkscape:cy="384.46299"
     inkscape:window-width="1920"
     inkscape:window-height="1000"
     inkscape:window-x="1080"
     inkscape:window-y="398"
     inkscape:window-maximized="1"
     inkscape:current-layer="layer1" /><defs
     id="defs1"><filter
       inkscape:collect="always"
       style="color-interpolation-filters:sRGB"
       id="filter10"
       x="-0.022120062"
       y="-0.014177779"
       width="1.0442401"
       height="1.0283556"><feGaussianBlur
         inkscape:collect="always"
         stdDeviation="0.97317597"
         id="feGaussianBlur10" /></filter></defs><g
     inkscape:label="Capa 1"
     inkscape:groupmode="layer"
     id="layer1"><circle
       style="font-variation-settings:normal;opacity:1;vector-effect:none;fill:#e9c6af;fill-opacity:1;stroke:none;stroke-width:0.264583px;stroke-linecap:butt;stroke-linejoin:miter;stroke-miterlimit:4;stroke-dasharray:none;stroke-dashoffset:0;stroke-opacity:1;-inkscape-stroke:none"
       id="path15"
       cx="67.73333"
       cy="67.73333"
       r="54.535915" /><g
       id="g15"
       transform="matrix(0.7674165,0,0,0.77114733,57.682112,-50.67837)"
       style="stroke-width:1.29992"><path
         id="path4"
         style="fill:#ff0000;stroke:#000000;stroke-width:0.343936"
         d="m 42.503906,184.375 c -1.027396,0.0162 -1.384606,1.52153 -0.507812,2.0332 0.819084,0.57571 1.969881,-0.33292 1.644531,-1.26758 -0.127269,-0.47861 -0.654015,-0.80655 -1.136719,-0.76562 z" /><path
         id="path7"
         style="mix-blend-mode:normal;fill:#000000;stroke:none;stroke-width:0.343936px;stroke-linecap:butt;stroke-linejoin:miter;stroke-opacity:1;filter:url(#filter10)"
         d="m 12.531018,71.197205 c -5.1302539,0.184918 -10.0754747,3.052722 -12.71291904,7.468794 -2.96260766,4.724569 -3.03586776,11.056286 -0.20670573,15.859497 0.40711771,0.705541 0.86850105,1.379669 1.38492838,2.009697 -6.58177611,2.836161 -11.94646961,8.165397 -15.16754961,14.534517 -4.067762,7.78131 -5.593399,16.56369 -6.614067,25.19639 -0.956819,8.26842 -1.165264,16.60601 -2.542997,24.81347 -1.193244,6.7035 -3.754079,13.26456 -8.093563,18.56993 -2.34504,2.95962 -5.305342,5.46186 -7.163903,8.78603 -0.9712,1.83984 -1.21511,3.96566 -1.023194,6.0141 0.04766,1.60574 -0.787905,4.0348 1.877922,6.85384 2.665826,2.81905 8.189147,3.61515 12.767696,4.94492 6.594551,1.83867 15.1435761,3.29077 22.2477375,3.9579 -0.3701328,0.75673 -0.6969825,1.53478 -0.9498128,2.34198 -1.9520466,5.80195 -0.5749019,12.54394 3.45456946,17.14469 4.27125264,5.06588 11.50680684,7.36402 17.91725284,5.68544 5.419325,-1.3493 10.108231,-5.35787 12.180135,-10.55853 1.963306,-4.68206 1.855535,-10.14387 -0.379822,-14.67766 8.554435,-0.69442 16.911726,-2.29163 25.075989,-4.96042 3.394924,-1.13635 6.765663,-2.56336 9.597347,-4.78627 0.19758,0.14927 0.41064,0.27895 0.663525,0.35863 0.539087,0.11925 0.844024,-0.50471 0.718819,-0.95549 0.472714,-0.82599 0.06006,-1.81154 0.213941,-2.70733 -0.0044,-2.24923 0.371078,-4.5578 -0.209806,-6.76341 -1.057965,-3.64732 -4.081428,-6.17307 -6.451803,-8.97155 -2.793914,-3.18236 -5.148438,-6.67989 -6.737057,-10.58488 -1.780771,-4.19122 -2.728467,-8.64942 -3.332613,-13.09791 -1.170596,-9.4354 -1.382144,-19.0228 -2.993615,-28.4241 -1.347734,-7.90954 -3.563685,-15.91234 -8.293551,-22.51749 -3.13649,-4.44489 -7.498781,-8.007894 -12.486576,-10.181294 3.679459,-4.461898 4.489305,-11.034386 2.019515,-16.261023 -2.310548,-5.199265 -7.684257,-8.834553 -13.365076,-9.069214 -0.464949,-0.02463 -0.929222,-0.05513 -1.394747,-0.02325 z m 0.834058,6.794934 c 4.190018,0.03085 8.034293,3.478252 8.477002,7.653279 0.462108,3.308363 -1.144023,6.801573 -3.996139,8.55555 -1.472499,-0.336331 -2.992152,-0.500098 -4.451408,-0.806669 -0.951562,-0.0091 -1.852149,0.28492 -2.793111,0.390674 -0.762796,0.07602 -1.5625704,0.372742 -2.2965006,0.361735 C 4.8929914,91.994082 3.3816775,87.332607 4.9226969,83.595414 6.2223612,80.195181 9.7161421,77.843518 13.365076,77.992139 Z M 9.244397,191.21572 v 9.44645 c -2.5468584,0.57431 -4.9090118,1.77758 -6.9489299,3.39049 -3.5553143,0.001 -8.2819656,-0.48077 -11.1719279,-0.95033 -6.7380352,-1.08517 -13.4883342,-2.41771 -19.8918092,-4.83174 -1.280292,-0.50794 -2.56805,-1.09249 -3.631303,-1.97508 1.878876,-0.79676 3.866993,-1.36314 5.832719,-1.86707 5.719403,-1.3915 11.686264,-1.99452 17.5860068,-2.47892 6.0609289,-0.44621 12.1411294,-0.67366 18.2252442,-0.7338 z m 8.182963,0.0284 c 3.475314,0.0475 6.949849,0.13019 10.420553,0.26665 8.131335,0.37554 16.355743,0.99931 24.317895,2.76676 2.193085,0.51187 4.407156,1.08963 6.466789,1.97455 -1.920907,1.61856 -4.442899,2.29194 -6.776331,3.10524 -5.755125,1.81103 -11.660063,2.96918 -17.60771,3.87057 -2.572081,0.39676 -6.705182,0.78183 -9.905856,0.76894 -2.042582,-1.60629 -4.409547,-2.79729 -6.949963,-3.35018 0.04297,-1.66473 0.04095,-5.60195 0.03462,-9.40253 z" /><g
         id="g6"
         transform="translate(-75.911617,12.034808)"
         style="fill:#f9f9f9;stroke-width:1.29992"><path
           id="path2"
           style="fill:#f9f9f9;stroke:none;stroke-width:0.343936px;stroke-linecap:butt;stroke-linejoin:miter;stroke-opacity:1"
           d="M 88.551184,59.893502 A 14.54916,14.54916 0 0 0 74.002201,74.442485 14.54916,14.54916 0 0 0 78.182825,84.597937 C 52.436468,94.63792 56.65035,130.28236 53.097017,149.17074 c -3.97853,21.1486 -16.087639,22.67752 -16.263606,31.10198 l 0.161747,6.21047 c -0.37125,0.61876 0.581573,-0.13196 0.210323,0.48679 3.712504,-6.70787 25.607449,-9.1767 51.345186,-9.1767 25.737733,0 47.632673,2.46879 51.345183,9.1767 -0.37125,-0.61875 0.58209,0.13197 0.21084,-0.48679 l 0.16175,-6.21047 c -0.17597,-8.42446 -12.28561,-9.95338 -16.26412,-31.10198 -3.55179,-18.88013 0.65665,-54.500894 -25.05222,-64.55885 A 14.54916,14.54916 0 0 0 103.10017,74.442485 14.54916,14.54916 0 0 0 88.551184,59.893502 Z m 0,4.67465 a 9.8747263,9.8747263 0 0 1 9.874333,9.874333 9.8747263,9.8747263 0 0 1 -4.924247,8.540047 c -1.50887,-0.33054 -3.071594,-0.614187 -4.751648,-0.79375 l -5.17e-4,-0.04651 c -0.06735,0.0066 -0.131367,0.01636 -0.198438,0.02325 -0.0669,-0.0069 -0.130744,-0.01663 -0.19792,-0.02325 l -5.17e-4,0.04651 c -1.681195,0.179685 -3.244966,0.463403 -4.754749,0.794267 a 9.8747263,9.8747263 0 0 1 -4.921663,-8.540564 9.8747263,9.8747263 0 0 1 9.875366,-9.874333 z" /><path
           id="path3"
           style="font-variation-settings:normal;opacity:1;vector-effect:none;fill:#f9f9f9;fill-opacity:1;stroke:none;stroke-width:0.343936px;stroke-linecap:butt;stroke-linejoin:miter;stroke-miterlimit:4;stroke-dasharray:none;stroke-dashoffset:0;stroke-opacity:1;-inkscape-stroke:none;stop-color:#000000;stop-opacity:1"
           d="m 85.731253,180.84557 v 8.31164 A 16.835417,16.835417 0 0 0 71.926928,205.68333 16.835417,16.835417 0 0 0 88.762593,222.519 16.835417,16.835417 0 0 0 105.59774,205.68333 16.835417,16.835417 0 0 0 91.793932,189.12724 v -8.28167 z" /><path
           style="font-variation-settings:normal;opacity:1;vector-effect:none;fill:#f9f9f9;fill-opacity:1;stroke:none;stroke-width:0.343936px;stroke-linecap:butt;stroke-linejoin:miter;stroke-miterlimit:4;stroke-dasharray:none;stroke-dashoffset:0;stroke-opacity:1;-inkscape-stroke:none"
           id="path5"
           d="m 38.480304,187.51222 c 6.83749,5.36089 24.921122,8.58529 33.353968,9.15717 l 2.975861,-4.10494 c -5.538644,0.35244 -28.524042,-3.88379 -32.563179,-7.89482 z"
           sodipodi:nodetypes="ccccc" /><path
           style="font-variation-settings:normal;opacity:1;vector-effect:none;fill:#f9f9f9;fill-opacity:1;stroke:none;stroke-width:0.343936px;stroke-linecap:butt;stroke-linejoin:miter;stroke-miterlimit:4;stroke-dasharray:none;stroke-dashoffset:0;stroke-opacity:1;-inkscape-stroke:none"
           id="path6"
           d="m 138.57483,187.51222 c -6.83749,5.36089 -24.92112,8.58529 -33.35396,9.15717 l -2.97586,-4.10494 c 5.53864,0.35244 28.52404,-3.88379 32.56317,-7.89482 z"
           sodipodi:nodetypes="ccccc" /></g><path
         style="fill:#cccccc;stroke:none;stroke-width:0.343936px;stroke-linecap:butt;stroke-linejoin:miter;stroke-opacity:1"
         d="m -25.993632,184.30421 c 6.822412,-2.19022 20.6414387,-4.67066 31.8162571,-3.67057 -4.7261016,-11.04525 -6.4985809,-13.74824 -6.70306397,-17.73187 -1.28946043,-9.59992 0.0790908,-31.95443 1.32599387,-46.25522 l -7.0977315,0.65187 c -1.9009372,11.81937 -3.9220685,23.10262 -3.8636125,43.66164 -2.419968,10.66498 -9.843983,18.92128 -15.477843,23.34415 z"
         id="path11"
         sodipodi:nodetypes="ccccccc" /><path
         style="font-variation-settings:normal;opacity:1;vector-effect:none;fill:#cccccc;fill-opacity:1;stroke:none;stroke-width:0.343936px;stroke-linecap:butt;stroke-linejoin:miter;stroke-miterlimit:4;stroke-dasharray:none;stroke-dashoffset:0;stroke-opacity:1;-inkscape-stroke:none;stop-color:#000000;stop-opacity:1"
         d="m -5.0483792,110.89461 5.05766951,-0.22218 c 0.17664484,-6.0215 1.36265459,-7.74797 2.73506839,-10.37352 -4.905588,3.08736 -7.6066164,6.59934 -7.7927379,10.5957 z"
         id="path13"
         sodipodi:nodetypes="cccc" /><circle
         style="font-variation-settings:normal;opacity:1;vector-effect:none;fill:#cccccc;fill-opacity:1;stroke:none;stroke-width:0.343936px;stroke-linecap:butt;stroke-linejoin:miter;stroke-miterlimit:4;stroke-dasharray:none;stroke-dashoffset:0;stroke-opacity:1;-inkscape-stroke:none"
         id="path14"
         cx="8.9478636"
         cy="214.04179"
         r="6.0643315" /></g></g></svg>
